<?xml version="1.0" encoding="UTF-8"?>
<!DOCTYPE svg PUBLIC "-//W3C//DTD SVG 1.1//EN" "http://www.w3.org/Graphics/SVG/1.1/DTD/svg11.dtd">
<!-- Creator: CorelDRAW 2021 (64-Bit) -->
<svg xmlns="http://www.w3.org/2000/svg" xml:space="preserve" width="66.718mm" height="19.5131mm" version="1.1" style="shape-rendering:geometricPrecision; text-rendering:geometricPrecision; image-rendering:optimizeQuality; fill-rule:evenodd; clip-rule:evenodd"
viewBox="0 0 6657.57 1947.15"
 xmlns:xlink="http://www.w3.org/1999/xlink"
 xmlns:xodm="http://www.corel.com/coreldraw/odm/2003">
 <defs>
  <style type="text/css">
   <![CDATA[
    .fil0 {fill:black;fill-rule:nonzero}
    .fil1 {fill:url(#id0)}
   ]]>
  </style>
  <linearGradient id="id0" gradientUnits="userSpaceOnUse" x1="88.79" y1="1006.59" x2="2149.75" y2="942.87">
   <stop offset="0" style="stop-opacity:1; stop-color:#0152E6"/>
   <stop offset="0.278431" style="stop-opacity:1; stop-color:#8388FC"/>
   <stop offset="0.509804" style="stop-opacity:1; stop-color:#FF0066"/>
   <stop offset="0.741176" style="stop-opacity:1; stop-color:#FF6666"/>
   <stop offset="1" style="stop-opacity:1; stop-color:#FFCC00"/>
  </linearGradient>
 </defs>
 <g id="Layer_x0020_1">
  <metadata id="CorelCorpID_0Corel-Layer"/>
  <g id="_2629191248096">
   <g>
    <path class="fil0" d="M3546.18 656.53c-123.9,0 -230.76,58.85 -274.12,184.3 -43.36,-125.44 -150.22,-184.3 -272.57,-184.3 -188.95,0 -323.69,119.26 -323.69,379.44l0 407.31 99.12 0 0 -407.31c0,-193.6 89.83,-284.97 224.57,-284.97 133.19,0 223.01,91.37 223.01,284.97l0 407.31 99.12 0 0 -407.31c0,-193.6 89.83,-284.97 224.56,-284.97 133.2,0 223.01,91.37 223.01,284.97l0 407.31 99.12 0 0 -407.31c0,-260.18 -134.73,-379.44 -322.13,-379.44zm430.55 399.57c0,221.47 178.1,399.58 398.02,399.58 219.92,0 399.58,-178.11 399.58,-399.58 0,-221.47 -179.66,-399.57 -399.58,-399.57 -128.55,0 -236.95,68.14 -298.9,165.72l0 -463.07 -99.12 0 0 696.92zm398.02 -305.1c167.26,0 300.46,134.74 300.46,305.1 0,170.37 -130.09,305.1 -300.46,305.1 -171.9,0 -300.45,-134.73 -300.45,-305.1 0,-170.36 131.64,-305.1 300.45,-305.1zm861.09 -94.47c-219.91,0 -399.57,178.1 -399.57,399.57 0,221.47 179.66,399.58 399.57,399.58 221.47,0 399.58,-178.11 399.58,-399.58 0,-221.47 -178.11,-399.57 -399.58,-399.57zm1.56 94.47c170.36,0 298.9,134.74 298.9,305.1 0,170.37 -131.64,305.1 -298.9,305.1 -167.26,0 -302,-134.73 -302,-305.1 0,-170.36 131.64,-305.1 302,-305.1zm823.92 12.39l0 -94.47 -195.14 0 0 -244.71 -99.12 0 0 244.71 -116.15 0 0 94.47 116.15 0 0 314.39c1.55,236.95 122.35,353.11 294.26,370.15l0 -96.02c-120.8,-18.58 -195.14,-105.31 -195.14,-277.22l0 -311.29 195.14 0zm322.13 692.28c159.51,0 274.12,-78.99 272.57,-221.47 -4.64,-305.1 -428.99,-167.26 -428.99,-368.6 0,-75.89 66.6,-120.8 151.78,-120.8 85.18,0 154.87,44.91 154.87,122.35l96.02 0c0,-134.73 -111.51,-210.62 -250.89,-210.62 -137.84,0 -250.89,78.98 -250.89,202.88 0,294.26 425.9,151.78 428.99,373.24 0,83.63 -61.95,134.74 -171.9,134.74 -97.57,0 -176.55,-51.11 -176.55,-137.84l-96.02 0c0,142.49 128.55,226.12 271.03,226.12l0 0z"/>
    <path class="fil1" d="M2415.15 1044.08c18.27,44.67 29.98,92.64 28.9,141.13 -1.27,57.23 -19.59,109.61 -55.68,154.15 -30.41,37.54 -70.75,65.45 -114.88,84.53 -41.42,17.9 -88.65,28.86 -134.52,31.14l0 0.64 -338.1 0c-0.87,0 -1.74,-0.01 -2.59,-0.03 -1.93,-0.06 -3.57,-0.07 -5.5,-0.06 -86.34,0.76 -166.57,-19.03 -235.7,-72.8 -56.97,-44.32 -94.62,-102.38 -128.41,-165.05l-140.14 -253.95 0.01 -0.01 -28.49 -51.6 -37.99 -68.83 -0.01 0.02 -104.71 -189.63 0.02 -0.02 -14.27 -25.78 -23.33 -42.25 -0.03 0.02 -181.51 -328.12c-0.68,-1.22 -1.32,-2.46 -1.94,-3.71 -12.2,-21.1 -29.75,-39 -50.6,-51.64 -17.46,-10.58 -37.36,-17.42 -57.79,-18.73 -18.37,-1.17 -36.51,2.32 -52.76,11.15 -18.87,10.25 -33.82,26.4 -45.39,44.3l-486.21 865.08c-4.62,8.21 -7.9,15.58 -10.95,24.5 -5.82,17.09 -9.91,35.44 -9.53,53 0.36,15.75 4.84,30.09 14.82,42.4 11.62,14.34 28.51,24.79 45.28,32.03 17.97,7.77 38.29,13.07 58.47,15.31 5.63,0.63 10.46,0.9 16.13,0.9l325.51 0c1.79,0 3.57,0.05 5.36,0.15 3.39,0.2 6.29,0.27 9.68,0.24 41.55,-0.37 82.58,-8.48 116.15,-34.59 27.64,-21.5 49.34,-53.57 67.39,-84.97 0.44,-0.76 0.8,-1.42 1.23,-2.19l194.86 -353.15 65.77 119.13c24.95,45.18 24.96,95.85 0.02,141.04l-88.25 159.93c-33.81,62.67 -71.46,120.72 -128.43,165.04 -69.12,53.78 -149.35,73.56 -235.69,72.8 -1.93,-0.01 -3.57,0 -5.5,0.06 -0.87,0.02 -1.74,0.03 -2.59,0.03l-338.11 0 0 -0.64c-45.86,-2.29 -93.09,-13.24 -134.52,-31.14 -44.14,-19.08 -84.47,-46.99 -114.88,-84.53 -36.08,-44.54 -54.4,-96.92 -55.68,-154.15 -1.07,-48.49 10.64,-96.45 28.9,-141.13 0.64,-1.57 1.16,-2.89 1.75,-4.48 1.67,-4.5 3.68,-8.87 6.04,-13.05l503.49 -895.82 1.31 0.74c27.55,-40.22 62.81,-74.08 106.07,-97.6 46.71,-25.38 98.78,-36.66 151.8,-33.28 49.87,3.19 98.35,19.31 141.02,45.16 47.4,28.72 87.21,69.28 114.8,117.35 0.58,1.01 1.09,1.87 1.69,2.86 0.65,1.07 1.28,2.16 1.89,3.25l163.24 295.1 0.06 -0.1 147.74 267.59 231.2 418.98c0.42,0.77 0.79,1.43 1.23,2.19 18.03,31.4 39.75,63.46 67.38,84.97 33.57,26.1 74.6,34.22 116.15,34.59 3.4,0.03 6.3,-0.04 9.69,-0.24 1.78,-0.1 3.57,-0.15 5.36,-0.15l325.51 0c5.67,0 10.5,-0.27 16.13,-0.9 20.17,-2.24 40.49,-7.53 58.47,-15.31 16.76,-7.24 33.67,-17.69 45.28,-32.03 9.98,-12.31 14.46,-26.65 14.81,-42.4 0.39,-17.55 -3.71,-35.9 -9.53,-53 -3.03,-8.92 -6.33,-16.29 -10.94,-24.5l-486.21 -865.08c-11.58,-17.89 -26.53,-34.05 -45.39,-44.3 -16.25,-8.83 -34.39,-12.31 -52.76,-11.15 -20.44,1.31 -40.32,8.15 -57.8,18.73 -63.84,38.69 -159.04,247.89 -192.17,307.76l-65.65 -118.9c-24.98,-45.23 -21.27,-94.11 0.06,-141.18 38.23,-84.38 74.48,-150.52 163,-204.15 42.67,-25.85 91.15,-41.97 141.02,-45.16 53.02,-3.38 105.1,7.9 151.8,33.28 43.27,23.52 78.52,57.38 106.08,97.6l1.31 -0.74 503.48 895.82c2.35,4.18 4.37,8.55 6.05,13.05 0.58,1.59 1.1,2.91 1.74,4.48z"/>
   </g>
   <path class="fil0" d="M3866.83 1888.99l15.15 0 0 -157.51 -15.15 0 0 157.51zm19.39 -212.65c0,-6.36 -4.85,-11.51 -11.51,-11.51 -6.37,0 -11.52,5.15 -11.52,11.51 0,6.67 5.15,11.21 11.52,11.21 6.66,0 11.51,-4.54 11.51,-11.21zm114.8 65.73c28.47,0 51.49,14.85 51.49,59.07l0 87.84 15.15 0 0 -91.18c0,-45.74 -24.84,-69.97 -64.22,-69.97 -28.17,0 -48.77,20.9 -54.82,30.59l0 -26.96 -15.15 0 0 157.51 15.15 0 0 -112.38c6.97,-13.93 28.48,-34.54 52.41,-34.54l0 0zm163.57 59.67c-17.26,-5.75 -44.23,-13.93 -44.23,-33.32 0,-20.9 22.11,-27.26 39.08,-27.26 16.06,0 32.41,5.46 45.13,13.03l6.97 -11.52c-17.56,-10.6 -34.84,-14.84 -51.79,-14.84 -24.85,0 -53.92,11.21 -53.92,40.89 0,28.17 29.39,38.17 52.41,45.73 26.95,8.79 46.04,15.46 45.13,36.66 -0.31,19.69 -20,28.17 -41.8,27.86 -22.11,0 -44.53,-11.51 -50.59,-16.36l-7.87 11.21c10,7.87 31.8,18.78 58.76,18.78 27.26,0 56.34,-10.3 56.34,-43.01 0,-27.26 -19.39,-36.35 -53.62,-47.87zm110.56 63.02c11.52,15.45 29.69,27.86 54.82,27.86 40.9,0 73,-31.5 73,-82.08 0,-52.71 -32.1,-82.69 -73,-82.69 -22.41,0 -42.71,13.02 -54.82,27.56l0 -23.93 -15.15 0 0 215.07 15.15 0 0 -81.79zm52.71 13.63c-28.17,0 -44.83,-18.48 -52.71,-30l0 -76.64c8.18,-11.21 26.65,-29.69 52.71,-29.69 31.8,0 60.28,22.42 60.28,68.46 0,45.74 -28.48,67.85 -60.28,67.85zm113.9 10.6l15.15 0 0 -157.51 -15.15 0 0 157.51zm19.39 -212.65c0,-6.36 -4.85,-11.51 -11.51,-11.51 -6.37,0 -11.52,5.15 -11.52,11.51 0,6.67 5.15,11.21 11.52,11.21 6.66,0 11.51,-4.54 11.51,-11.21zm117.53 51.5c-29.39,0 -49.98,20.9 -55.13,33.32l0 -29.69 -15.15 0 0 157.51 15.15 0 0 -106.32c7.27,-20.3 26.65,-39.69 55.13,-39.69l0 -15.14zm33.32 161.15l15.15 0 0 -157.51 -15.15 0 0 157.51zm19.39 -212.65c0,-6.36 -4.85,-11.51 -11.51,-11.51 -6.37,0 -11.52,5.15 -11.52,11.51 0,6.67 5.15,11.21 11.52,11.21 6.66,0 11.51,-4.54 11.51,-11.21zm114.8 65.73c28.47,0 51.49,14.85 51.49,59.07l0 87.84 15.15 0 0 -91.18c0,-45.74 -24.84,-69.97 -64.22,-69.97 -28.17,0 -48.77,20.9 -54.82,30.59l0 -26.96 -15.15 0 0 157.51 15.15 0 0 -112.38c6.97,-13.93 28.48,-34.54 52.41,-34.54l0 0zm225.98 133.58c0,35.44 -22.72,56.95 -56.04,56.95 -18.78,0 -36.05,-8.48 -44.53,-14.54l-7.87 11.81c10.3,8.18 30.3,17.26 52.41,17.26 36.65,0 71.18,-22.71 71.18,-72.4l0 -143.27 -15.14 0 0 23.93c-11.22,-14.84 -28.78,-27.56 -53.32,-27.56 -39.98,0 -70.28,30.29 -70.28,78.14 0,49.98 31.81,78.15 69.98,78.15 22.11,0 42.1,-12.72 53.62,-26.65l0 18.17zm-51.2 -4.84c-30.29,0 -58.16,-21.2 -58.16,-64.83 0,-43.31 27.87,-64.21 58.16,-64.21 27.87,0 43.93,19.39 51.2,29.69l0 69.67c-7.27,10.3 -25.45,29.69 -51.2,29.69zm215.99 -189.03l-15.15 6.07 0 44.23 -19.39 0 0 13.63 19.39 0 0 99.96c0,26.65 9.69,44.23 39.98,44.23 8.78,0 17.87,-1.52 25.74,-4.24l-4.24 -13.93c-7.87,2.42 -15.15,3.63 -21.5,3.63 -21.2,0 -24.84,-12.72 -24.84,-29.69l0 -99.96 44.82 0 0 -13.63 -44.82 0 0 -50.29zm218.69 128.74c0,-44.23 -29.08,-82.69 -73.91,-82.69 -45.43,0 -77.54,36.95 -77.54,82.38 0,46.05 31.2,82.39 77.54,82.39 26.35,0 48.78,-9.39 63.31,-25.14l-11.21 -9.09c-13.63,13.33 -31.81,20.3 -51.8,20.3 -36.35,0 -61.19,-27.56 -63.01,-61.49l136.31 0c0,0 0.3,-4.24 0.3,-6.67zm-73.91 -69.06c34.24,0 57.56,28.17 59.37,63.01l-122.07 0c1.82,-34.84 27.26,-63.01 62.7,-63.01zm228.71 116.62c-11.81,12.41 -29.39,19.99 -47.56,19.99 -37.56,0 -66.65,-30.29 -66.65,-67.85 0,-38.16 28.78,-68.15 66.34,-68.15 15.15,0 29.69,5.76 41.2,14.54l10 -10.6c-13.94,-11.21 -32.11,-18.17 -51.2,-18.17 -46.04,0 -80.88,36.04 -80.88,82.38 0,46.35 34.84,82.39 81.19,82.39 23.02,0 44.23,-9.39 58.76,-24.54l-11.21 -9.99zm111.17 -115.71c28.47,0 51.49,15.45 51.49,58.76l0 87.84 15.15 0 0 -91.18c0,-45.74 -24.84,-69.97 -64.22,-69.97 -28.17,0 -48.77,20.9 -54.82,30.59l0 -96.63 -15.15 0 0 227.18 15.15 0 0 -112.38c6.97,-13.93 28.48,-34.23 52.41,-34.23zm182.66 -0.31c28.47,0 51.49,14.85 51.49,59.07l0 87.84 15.15 0 0 -91.18c0,-45.74 -24.84,-69.97 -64.22,-69.97 -28.17,0 -48.77,20.9 -54.82,30.59l0 -26.96 -15.15 0 0 157.51 15.15 0 0 -112.38c6.97,-13.93 28.48,-34.54 52.41,-34.54l0 0zm102.38 68.15c0,45.44 35.44,82.39 80.88,82.39 45.44,0 81.19,-35.13 81.19,-82.39 0,-45.43 -35.74,-82.38 -81.19,-82.38 -46.34,0 -80.88,36.95 -80.88,82.38zm14.24 0c0,-37.25 28.78,-68.15 66.34,-68.15 36.35,0 66.95,30.9 66.95,68.15 0,37.26 -29.69,67.85 -66.95,67.85 -37.56,0 -66.34,-30.59 -66.34,-67.85zm201.74 -148.42l-15.15 0 0 227.18 15.15 0 0 -227.18zm38.77 148.42c0,45.44 35.44,82.39 80.88,82.39 45.44,0 81.19,-35.13 81.19,-82.39 0,-45.43 -35.74,-82.38 -81.19,-82.38 -46.34,0 -80.88,36.95 -80.88,82.38zm14.24 0c0,-37.25 28.78,-68.15 66.34,-68.15 36.35,0 66.95,30.9 66.95,68.15 0,37.26 -29.69,67.85 -66.95,67.85 -37.56,0 -66.34,-30.59 -66.34,-67.85zm297.46 65.43c0,35.44 -22.72,56.95 -56.04,56.95 -18.78,0 -36.05,-8.48 -44.53,-14.54l-7.87 11.81c10.3,8.18 30.3,17.26 52.41,17.26 36.65,0 71.18,-22.71 71.18,-72.4l0 -143.27 -15.14 0 0 23.93c-11.22,-14.84 -28.78,-27.56 -53.32,-27.56 -39.98,0 -70.28,30.29 -70.28,78.14 0,49.98 31.81,78.15 69.98,78.15 22.11,0 42.1,-12.72 53.62,-26.65l0 18.17zm-51.2 -4.84c-30.29,0 -58.16,-21.2 -58.16,-64.83 0,-43.31 27.87,-64.21 58.16,-64.21 27.87,0 43.93,19.39 51.2,29.69l0 69.67c-7.27,10.3 -25.45,29.69 -51.2,29.69zm164.49 -2.73l-54.83 -136.61 -15.75 0 63.01 154.79c-7.57,24.23 -18.48,31.8 -31.81,32.71 -2.12,0 -5.15,0 -6.97,-0.3l-3.02 13.63c1.82,0.3 4.84,0.61 9.39,0.61 26.65,0 37.25,-19.39 56.64,-67.56l54.52 -133.88 -15.75 0 -55.43 136.61z"/>
  </g>
 </g>
</svg>
