<?xml version="1.0" encoding="UTF-8"?>
<!DOCTYPE svg PUBLIC "-//W3C//DTD SVG 1.1//EN" "http://www.w3.org/Graphics/SVG/1.1/DTD/svg11.dtd">
<!-- Creator: CorelDRAW 2021 (64-Bit) -->
<svg xmlns="http://www.w3.org/2000/svg" xml:space="preserve" width="74.9906mm" height="21.9351mm" version="1.1" style="shape-rendering:geometricPrecision; text-rendering:geometricPrecision; image-rendering:optimizeQuality; fill-rule:evenodd; clip-rule:evenodd"
viewBox="0 0 7484.19 2189.16"
 xmlns:xlink="http://www.w3.org/1999/xlink"
 xmlns:xodm="http://www.corel.com/coreldraw/odm/2003">
 <defs>
  <style type="text/css">
   <![CDATA[
    .fil0 {fill:white;fill-rule:nonzero}
    .fil1 {fill:url(#id0)}
   ]]>
  </style>
  <linearGradient id="id0" gradientUnits="userSpaceOnUse" x1="99.83" y1="1131.69" x2="2416.95" y2="1060.07">
   <stop offset="0" style="stop-opacity:1; stop-color:#0152E6"/>
   <stop offset="0.278431" style="stop-opacity:1; stop-color:#8388FC"/>
   <stop offset="0.509804" style="stop-opacity:1; stop-color:#FF0066"/>
   <stop offset="0.741176" style="stop-opacity:1; stop-color:#FF6666"/>
   <stop offset="1" style="stop-opacity:1; stop-color:#FFCC00"/>
  </linearGradient>
 </defs>
 <g id="Layer_x0020_1">
  <metadata id="CorelCorpID_0Corel-Layer"/>
  <g id="_3224659672432">
   <path class="fil0" d="M3986.91 738.18c-139.29,0 -259.43,66.16 -308.19,207.19 -48.74,-141.03 -168.88,-207.19 -306.43,-207.19 -212.42,0 -363.9,134.06 -363.9,426.57l0 457.92 111.43 0 0 -457.92c0,-217.64 100.99,-320.36 252.47,-320.36 149.73,0 250.72,102.73 250.72,320.36l0 457.92 111.43 0 0 -457.92c0,-217.64 100.99,-320.36 252.47,-320.36 149.73,0 250.72,102.73 250.72,320.36l0 457.92 111.43 0 0 -457.92c0,-292.51 -151.48,-426.57 -362.15,-426.57zm484.04 449.21c0,248.99 200.23,449.22 447.47,449.22 247.24,0 449.21,-200.23 449.21,-449.22 0,-248.98 -201.97,-449.21 -449.21,-449.21 -144.51,0 -266.39,76.61 -336.04,186.3l0 -520.6 -111.43 0 0 783.5zm447.47 -343c188.04,0 337.78,151.48 337.78,343 0,191.53 -146.26,343.01 -337.78,343.01 -193.27,0 -337.78,-151.48 -337.78,-343.01 0,-191.52 148,-343 337.78,-343zm968.07 -106.21c-247.24,0 -449.22,200.23 -449.22,449.21 0,248.99 201.98,449.22 449.22,449.22 248.99,0 449.21,-200.23 449.21,-449.22 0,-248.98 -200.22,-449.21 -449.21,-449.21zm1.74 106.21c191.53,0 336.04,151.48 336.04,343 0,191.53 -148,343.01 -336.04,343.01 -188.04,0 -339.52,-151.48 -339.52,-343.01 0,-191.52 148,-343 339.52,-343zm926.29 13.93l0 -106.21 -219.38 0 0 -275.1 -111.44 0 0 275.1 -130.58 0 0 106.21 130.58 0 0 353.45c1.75,266.39 137.56,396.97 330.82,416.12l0 -107.95c-135.81,-20.9 -219.38,-118.39 -219.38,-311.66l0 -349.96 219.38 0zm362.15 778.28c179.33,0 308.18,-88.8 306.43,-248.99 -5.22,-343 -482.29,-188.05 -482.29,-414.39 0,-85.32 74.87,-135.81 170.63,-135.81 95.76,0 174.11,50.49 174.11,137.55l107.95 0c0,-151.48 -125.36,-236.79 -282.06,-236.79 -154.96,0 -282.06,88.79 -282.06,228.09 0,330.81 478.81,170.63 482.29,419.62 0,94.01 -69.64,151.48 -193.27,151.48 -109.69,0 -198.49,-57.47 -198.49,-154.96l-107.96 0c0,160.18 144.51,254.2 304.7,254.2l0 0z"/>
   <path class="fil1" d="M2715.33 1173.85c20.54,50.24 33.7,104.16 32.49,158.68 -1.42,64.33 -22.03,123.22 -62.6,173.3 -34.19,42.22 -79.54,73.58 -129.16,95.04 -46.58,20.13 -99.67,32.45 -151.24,35.02l0 0.72 -380.12 0c-0.98,0 -1.95,-0.02 -2.92,-0.04 -2.17,-0.07 -4.01,-0.08 -6.18,-0.07 -97.07,0.86 -187.28,-21.4 -264.99,-81.85 -64.04,-49.82 -106.37,-115.1 -144.36,-185.56l-157.56 -285.52 0.01 0 -32.04 -58.01 -42.71 -77.39 -0.01 0.02 -117.72 -213.21 0.01 -0.03 -16.04 -28.98 -26.22 -47.5 -0.04 0.02 -204.07 -368.91c-0.76,-1.37 -1.49,-2.76 -2.18,-4.17 -13.72,-23.73 -33.44,-43.85 -56.9,-58.05 -19.63,-11.9 -42,-19.59 -64.97,-21.06 -20.65,-1.32 -41.05,2.6 -59.31,12.53 -21.21,11.53 -38.02,29.69 -51.04,49.8l-546.64 972.61c-5.19,9.23 -8.88,17.52 -12.3,27.55 -6.54,19.22 -11.15,39.84 -10.72,59.58 0.4,17.7 5.44,33.83 16.66,47.67 13.05,16.13 32.06,27.86 50.91,36.02 20.21,8.73 43.05,14.69 65.73,17.22 6.34,0.7 11.77,1 18.13,1l365.97 0c2.02,0 4.02,0.06 6.03,0.18 3.81,0.22 7.07,0.3 10.89,0.26 46.71,-0.41 92.85,-9.53 130.58,-38.88 31.08,-24.17 55.48,-60.22 75.76,-95.53 0.5,-0.86 0.91,-1.59 1.39,-2.46l219.07 -397.04 73.95 133.93c28.04,50.8 28.05,107.76 0.02,158.56l-99.22 179.81c-38,70.45 -80.33,135.73 -144.38,185.55 -77.72,60.45 -167.92,82.71 -264.98,81.85 -2.17,-0.01 -4.01,0 -6.19,0.07 -0.97,0.02 -1.95,0.04 -2.91,0.04l-380.12 0 0 -0.72c-51.57,-2.57 -104.67,-14.89 -151.24,-35.02 -49.62,-21.46 -94.97,-52.83 -129.16,-95.04 -40.58,-50.08 -61.18,-108.96 -62.61,-173.3 -1.21,-54.52 11.96,-108.44 32.49,-158.68 0.72,-1.75 1.31,-3.25 1.97,-5.03 1.88,-5.06 4.14,-9.97 6.79,-14.68l566.07 -1007.16 1.48 0.84c30.98,-45.22 70.61,-83.29 119.26,-109.73 52.51,-28.53 111.06,-41.23 170.66,-37.42 56.07,3.58 110.58,21.71 158.54,50.77 53.28,32.29 98.06,77.9 129.07,131.94 0.65,1.14 1.22,2.1 1.9,3.22 0.73,1.2 1.44,2.43 2.12,3.65l183.54 331.78 0.06 -0.11 166.12 300.85 259.92 471.05c0.48,0.87 0.89,1.6 1.38,2.46 20.28,35.31 44.69,71.36 75.76,95.53 37.75,29.35 83.87,38.47 130.59,38.88 3.81,0.04 7.08,-0.04 10.89,-0.26 2.01,-0.12 4.01,-0.18 6.03,-0.18l365.97 0c6.37,0 11.8,-0.3 18.12,-1 22.68,-2.52 45.53,-8.48 65.73,-17.22 18.85,-8.15 37.85,-19.89 50.92,-36.02 11.22,-13.83 16.26,-29.96 16.65,-47.67 0.44,-19.74 -4.17,-40.36 -10.71,-59.58 -3.41,-10.03 -7.12,-18.31 -12.31,-27.55l-546.64 -972.61c-13.01,-20.11 -29.82,-38.27 -51.03,-49.8 -18.26,-9.92 -38.66,-13.84 -59.31,-12.53 -22.97,1.47 -45.34,9.16 -64.98,21.06 -71.78,43.49 -178.81,278.7 -216.05,346.01l-73.81 -133.67c-28.08,-50.86 -23.91,-105.81 0.06,-158.72 42.99,-94.86 83.74,-169.23 183.28,-229.53 47.96,-29.06 102.47,-47.19 158.54,-50.77 59.6,-3.81 118.15,8.88 170.66,37.42 48.64,26.44 88.27,64.51 119.26,109.73l1.47 -0.84 566.07 1007.16c2.65,4.71 4.92,9.62 6.8,14.68 0.66,1.78 1.25,3.28 1.96,5.03z"/>
   <path class="fil0" d="M4347.44 2123.79l17.03 0 0 -177.05 -17.03 0 0 177.05zm21.79 -239.02c0,-7.15 -5.45,-12.93 -12.93,-12.93 -7.16,0 -12.94,5.79 -12.94,12.93 0,7.5 5.79,12.6 12.94,12.6 7.49,0 12.93,-5.11 12.93,-12.6zm129.03 73.88c32.01,0 57.88,16.69 57.88,66.4l0 98.73 17.03 0 0 -102.49c0,-51.41 -27.92,-78.64 -72.19,-78.64 -31.66,0 -54.81,23.49 -61.62,34.38l0 -30.3 -17.03 0 0 177.05 17.03 0 0 -126.32c7.82,-15.66 32,-38.81 58.89,-38.81l0 0zm183.85 67.08c-19.4,-6.47 -49.71,-15.66 -49.71,-37.46 0,-23.49 24.86,-30.64 43.92,-30.64 18.04,0 36.44,6.13 50.73,14.64l7.83 -12.94c-19.75,-11.92 -39.15,-16.68 -58.22,-16.68 -27.91,0 -60.6,12.59 -60.6,45.96 0,31.67 33.02,42.9 58.9,51.42 30.3,9.87 51.75,17.37 50.73,41.2 -0.34,22.13 -22.48,31.66 -46.99,31.32 -24.85,0 -50.05,-12.93 -56.86,-18.38l-8.85 12.59c11.24,8.85 35.75,21.11 66.05,21.11 30.64,0 63.33,-11.58 63.33,-48.34 0,-30.64 -21.8,-40.86 -60.27,-53.79zm124.28 70.82c12.93,17.37 33.36,31.32 61.62,31.32 45.97,0 82.06,-35.41 82.06,-92.27 0,-59.24 -36.09,-92.95 -82.06,-92.95 -25.19,0 -48,14.64 -61.62,30.98l0 -26.9 -17.03 0 0 241.74 17.03 0 0 -91.93zm59.24 15.32c-31.67,0 -50.39,-20.77 -59.24,-33.7l0 -86.15c9.19,-12.59 29.96,-33.36 59.24,-33.36 35.75,0 67.75,25.2 67.75,76.95 0,51.42 -32,76.27 -67.75,76.27zm128.02 11.92l17.03 0 0 -177.05 -17.03 0 0 177.05zm21.79 -239.02c0,-7.15 -5.45,-12.93 -12.93,-12.93 -7.16,0 -12.94,5.79 -12.94,12.93 0,7.5 5.79,12.6 12.94,12.6 7.49,0 12.93,-5.11 12.93,-12.6zm132.1 57.88c-33.02,0 -56.18,23.49 -61.96,37.45l0 -33.36 -17.03 0 0 177.05 17.03 0 0 -119.5c8.16,-22.81 29.96,-44.6 61.96,-44.6l0 -17.03zm37.46 181.13l17.03 0 0 -177.05 -17.03 0 0 177.05zm21.79 -239.02c0,-7.15 -5.45,-12.93 -12.93,-12.93 -7.16,0 -12.94,5.79 -12.94,12.93 0,7.5 5.79,12.6 12.94,12.6 7.49,0 12.93,-5.11 12.93,-12.6zm129.03 73.88c32.01,0 57.88,16.69 57.88,66.4l0 98.73 17.03 0 0 -102.49c0,-51.41 -27.92,-78.64 -72.19,-78.64 -31.66,0 -54.81,23.49 -61.62,34.38l0 -30.3 -17.03 0 0 177.05 17.03 0 0 -126.32c7.82,-15.66 32,-38.81 58.89,-38.81l0 0zm254 150.15c0,39.83 -25.54,64.01 -62.98,64.01 -21.12,0 -40.52,-9.54 -50.05,-16.35l-8.85 13.28c11.58,9.19 34.04,19.4 58.9,19.4 41.2,0 80.01,-25.54 80.01,-81.37l0 -161.05 -17.03 0 0 26.9c-12.59,-16.68 -32.35,-30.98 -59.92,-30.98 -44.95,0 -78.99,34.04 -78.99,87.84 0,56.18 35.75,87.85 78.65,87.85 24.85,0 47.32,-14.3 60.26,-29.96l0 20.43zm-57.55 -5.45c-34.04,0 -65.37,-23.83 -65.37,-72.87 0,-48.68 31.33,-72.18 65.37,-72.18 31.33,0 49.37,21.79 57.55,33.36l0 78.31c-8.17,11.58 -28.6,33.36 -57.55,33.36zm242.76 -212.46l-17.02 6.82 0 49.7 -21.8 0 0 15.33 21.8 0 0 112.36c0,29.96 10.89,49.7 44.94,49.7 9.87,0 20.09,-1.7 28.94,-4.76l-4.77 -15.67c-8.85,2.72 -17.03,4.09 -24.17,4.09 -23.83,0 -27.92,-14.3 -27.92,-33.36l0 -112.36 50.39 0 0 -15.33 -50.39 0 0 -56.52zm245.82 144.7c0,-49.71 -32.69,-92.95 -83.07,-92.95 -51.07,0 -87.16,41.54 -87.16,92.61 0,51.76 35.07,92.61 87.16,92.61 29.62,0 54.82,-10.55 71.16,-28.25l-12.59 -10.22c-15.32,14.98 -35.75,22.81 -58.21,22.81 -40.86,0 -68.78,-30.98 -70.82,-69.11l153.21 0c0,0 0.34,-4.77 0.34,-7.5zm-83.07 -77.63c38.47,0 64.69,31.67 66.74,70.82l-137.21 0c2.04,-39.15 30.64,-70.82 70.47,-70.82zm257.06 131.08c-13.28,13.96 -33.02,22.48 -53.45,22.48 -42.22,0 -74.91,-34.05 -74.91,-76.27 0,-42.89 32.35,-76.61 74.57,-76.61 17.02,0 33.36,6.47 46.3,16.35l11.24 -11.92c-15.66,-12.6 -36.09,-20.43 -57.54,-20.43 -51.76,0 -90.91,40.52 -90.91,92.61 0,52.1 39.15,92.61 91.25,92.61 25.88,0 49.71,-10.55 66.05,-27.58l-12.59 -11.24zm124.95 -130.06c32.01,0 57.88,17.37 57.88,66.06l0 98.73 17.03 0 0 -102.49c0,-51.41 -27.92,-78.64 -72.19,-78.64 -31.66,0 -54.81,23.49 -61.62,34.38l0 -108.6 -17.03 0 0 255.35 17.03 0 0 -126.32c7.82,-15.66 32,-38.47 58.89,-38.47zm205.3 -0.34c32.01,0 57.88,16.69 57.88,66.4l0 98.73 17.03 0 0 -102.49c0,-51.41 -27.92,-78.64 -72.19,-78.64 -31.66,0 -54.81,23.49 -61.62,34.38l0 -30.3 -17.03 0 0 177.05 17.03 0 0 -126.32c7.82,-15.66 32,-38.81 58.89,-38.81l0 0zm115.08 76.61c0,51.07 39.83,92.61 90.91,92.61 51.07,0 91.24,-39.49 91.24,-92.61 0,-51.07 -40.17,-92.61 -91.24,-92.61 -52.1,0 -90.91,41.54 -90.91,92.61zm16 0c0,-41.88 32.35,-76.61 74.57,-76.61 40.85,0 75.24,34.73 75.24,76.61 0,41.88 -33.36,76.27 -75.24,76.27 -42.23,0 -74.57,-34.39 -74.57,-76.27zm226.76 -166.83l-17.03 0 0 255.35 17.03 0 0 -255.35zm43.57 166.83c0,51.07 39.83,92.61 90.91,92.61 51.07,0 91.24,-39.49 91.24,-92.61 0,-51.07 -40.17,-92.61 -91.24,-92.61 -52.1,0 -90.91,41.54 -90.91,92.61zm16 0c0,-41.88 32.35,-76.61 74.57,-76.61 40.85,0 75.24,34.73 75.24,76.61 0,41.88 -33.36,76.27 -75.24,76.27 -42.23,0 -74.57,-34.39 -74.57,-76.27zm334.35 73.54c0,39.83 -25.54,64.01 -62.98,64.01 -21.12,0 -40.52,-9.54 -50.05,-16.35l-8.85 13.28c11.58,9.19 34.04,19.4 58.9,19.4 41.2,0 80.01,-25.54 80.01,-81.37l0 -161.05 -17.03 0 0 26.9c-12.59,-16.68 -32.35,-30.98 -59.92,-30.98 -44.95,0 -78.99,34.04 -78.99,87.84 0,56.18 35.75,87.85 78.65,87.85 24.85,0 47.32,-14.3 60.26,-29.96l0 20.43zm-57.55 -5.45c-34.04,0 -65.37,-23.83 -65.37,-72.87 0,-48.68 31.33,-72.18 65.37,-72.18 31.33,0 49.37,21.79 57.55,33.36l0 78.31c-8.17,11.58 -28.6,33.36 -57.55,33.36zm184.88 -3.06l-61.63 -153.55 -17.7 0 70.82 173.98c-8.51,27.24 -20.77,35.75 -35.75,36.77 -2.39,0 -5.79,0 -7.83,-0.34l-3.4 15.32c2.05,0.35 5.45,0.69 10.55,0.69 29.97,0 41.89,-21.8 63.67,-75.93l61.29 -150.49 -17.7 0 -62.31 153.55z"/>
  </g>
 </g>
</svg>
